# xmcd
#
# Track frame offsets:
#	150
#	10704
#	25399
#	39200
#	51258
#	66815
#	83051
#	94880
#	106543
#	118751
#	132766
#	146095
#
# Disc length: 2128 seconds
#
# Revision: 0
# Processed by: cddbd v1.4PL0 Copyright (c) Steve Scherf et al.
# Submitted via: dBpowerAMP V4.0
#
DISCID=95084e0c
DTITLE=Troy Cook, Jr. - It's Long Overdue
DYEAR=1900
DGENRE=Country
TTITLE0=It's Long Overdue
TTITLE1=I Still Feel The Same
TTITLE2=I'm Going Nowhere (But Out Of My Mind)
TTITLE3=I'll Forgive You But I Can't Forget
TTITLE4=Today Is Going To Be That Someday
TTITLE5=Movin' Out, Movin' Up, Movin' On
TTITLE6=She Loves Romance
TTITLE7=No Can Do
TTITLE8=Packing Up Old Memories
TTITLE9=Ready Or Not
TTITLE10=You've Changed
TTITLE11=If Only I Were There
EXTD=
EXTT0=
EXTT1=
EXTT2=
EXTT3=
EXTT4=
EXTT5=
EXTT6=
EXTT7=
EXTT8=
EXTT9=
EXTT10=
EXTT11=
PLAYORDER=
